<?xml version="1.0" standalone="no"?>
<!DOCTYPE svg PUBLIC "-//W3C//DTD SVG 20010904//EN"
 "http://www.w3.org/TR/2001/REC-SVG-20010904/DTD/svg10.dtd">
<svg version="1.0" xmlns="http://www.w3.org/2000/svg"
 width="256.000000pt" height="256.000000pt" viewBox="0 0 256.000000 256.000000"
 preserveAspectRatio="xMidYMid meet">
<metadata>
Created by potrace 1.16, written by Peter Selinger 2001-2019
</metadata>
<g transform="translate(0.000000,256.000000) scale(0.100000,-0.100000)"
fill="#000000" stroke="none">
<path d="M207 1993 c-4 -3 -7 -147 -7 -319 0 -304 0 -312 20 -317 33 -8 40 22
40 164 0 123 2 135 25 174 45 78 147 96 198 35 21 -25 26 -43 32 -127 4 -55 6
-115 5 -134 -1 -18 -2 -51 -1 -71 1 -34 4 -38 27 -38 l26 0 -4 173 c-4 188
-11 217 -66 255 -62 45 -143 37 -208 -20 l-34 -30 0 115 c0 64 -3 122 -6 131
-6 16 -35 22 -47 9z"/>
<path d="M1205 1838 c-3 -7 -4 -117 -3 -243 l3 -230 25 0 25 0 5 155 c4 126 8
161 23 183 25 39 60 58 106 59 84 1 101 -40 101 -247 l0 -155 25 0 25 0 0 120
c0 149 12 209 49 244 37 35 89 47 129 30 51 -21 57 -43 59 -219 1 -88 2 -163
3 -167 0 -5 11 -8 25 -8 l25 0 0 168 c0 183 -12 233 -62 266 -62 41 -151 24
-207 -39 -27 -31 -30 -32 -36 -15 -9 29 -61 68 -101 76 -41 8 -112 -16 -140
-48 -19 -20 -19 -20 -24 28 -4 41 -9 50 -28 52 -12 2 -24 -3 -27 -10z"/>
<path d="M2066 1806 c-157 -58 -187 -284 -53 -390 33 -27 48 -31 112 -34 61
-3 82 0 120 18 45 22 105 92 105 123 0 12 -19 27 -34 27 -2 0 -15 -18 -30 -40
-37 -57 -79 -80 -145 -80 -68 0 -113 26 -140 84 -39 79 -45 76 169 76 215 0
204 -5 175 82 -17 49 -62 101 -108 125 -42 21 -125 26 -171 9z m154 -61 c32
-17 56 -43 69 -78 l11 -27 -155 0 c-102 0 -155 4 -155 10 0 23 30 68 56 85 54
35 118 39 174 10z"/>
<path d="M1782 1013 c3 -290 4 -298 23 -298 19 0 20 8 25 145 3 89 10 153 17
167 44 76 167 88 205 20 8 -14 14 -78 16 -172 2 -82 7 -154 11 -158 4 -4 16
-5 25 -1 17 6 18 20 14 163 -5 174 -14 207 -71 241 -56 35 -147 21 -192 -30
l-20 -22 -5 118 c-5 114 -6 119 -28 122 l-22 3 2 -298z"/>
<path d="M993 1131 c-119 -30 -180 -178 -123 -296 59 -122 243 -142 330 -37
59 71 26 100 -38 33 -57 -60 -127 -71 -200 -32 -28 15 -62 73 -62 105 l0 26
170 0 170 0 0 33 c-1 106 -134 196 -247 168z m117 -59 c31 -15 80 -72 80 -93
0 -5 -65 -9 -145 -9 l-145 0 11 27 c30 81 121 115 199 75z"/>
<path d="M1413 1115 c-85 -43 -127 -132 -109 -230 11 -58 88 -130 156 -144 81
-18 153 2 213 57 28 26 35 56 17 67 -6 4 -31 -11 -55 -34 -106 -98 -267 -46
-282 91 -10 86 46 156 132 166 70 7 116 -6 151 -44 21 -22 38 -32 48 -28 25 9
19 30 -17 67 -62 61 -168 75 -254 32z"/>
</g>
</svg>
